<svg xmlns="http://www.w3.org/2000/svg" viewBox="0 0 1280 720" width="1280" height="720">
  <defs>
    <linearGradient id="sky" x1="0" y1="0" x2="0" y2="1">
      <stop offset="0%" stop-color="#1a1444"/>
      <stop offset="40%" stop-color="#4a1f5e"/>
      <stop offset="78%" stop-color="#a83a4a"/>
      <stop offset="100%" stop-color="#e8825c"/>
    </linearGradient>
    <linearGradient id="water" x1="0" y1="0" x2="0" y2="1">
      <stop offset="0%" stop-color="#3a2548"/>
      <stop offset="55%" stop-color="#1a1230"/>
      <stop offset="100%" stop-color="#080614"/>
    </linearGradient>
    <radialGradient id="moonGlow" cx="0.5" cy="0.5" r="0.5">
      <stop offset="0%" stop-color="#fff8e0"/>
      <stop offset="100%" stop-color="#fff8e0" stop-opacity="0"/>
    </radialGradient>
    <radialGradient id="lglow" cx="0.5" cy="0.5" r="0.5">
      <stop offset="0%" stop-color="#ffd96a" stop-opacity="0.95"/>
      <stop offset="55%" stop-color="#ff7a3a" stop-opacity="0.4"/>
      <stop offset="100%" stop-color="#ff5a1a" stop-opacity="0"/>
    </radialGradient>
    <filter id="halo" x="-50%" y="-50%" width="200%" height="200%">
      <feGaussianBlur stdDeviation="16"/>
    </filter>
    <filter id="ripple" x="-20%" y="-20%" width="140%" height="140%">
      <feGaussianBlur stdDeviation="3"/>
    </filter>
  </defs>

  <rect width="1280" height="500" fill="url(#sky)"/>
  <rect y="500" width="1280" height="220" fill="url(#water)"/>

  <circle cx="980" cy="160" r="80" fill="url(#moonGlow)" filter="url(#halo)"/>
  <circle cx="980" cy="160" r="44" fill="#fff8e0" opacity="0.92"/>

  <g fill="#fff8e0">
    <circle cx="120" cy="60" r="1.4" opacity="0.85"/>
    <circle cx="240" cy="40" r="1.1" opacity="0.7"/>
    <circle cx="360" cy="90" r="1" opacity="0.8"/>
    <circle cx="540" cy="50" r="1.3" opacity="0.85"/>
    <circle cx="720" cy="80" r="1" opacity="0.65"/>
    <circle cx="860" cy="40" r="1.2" opacity="0.8"/>
    <circle cx="1180" cy="100" r="1.1" opacity="0.75"/>
    <circle cx="80" cy="200" r="1" opacity="0.6"/>
    <circle cx="430" cy="180" r="0.9" opacity="0.55"/>
    <circle cx="1130" cy="240" r="1" opacity="0.7"/>
  </g>

  <path d="M 0 500 L 100 420 L 200 460 L 320 380 L 460 440 L 620 400 L 780 450 L 920 410 L 1060 440 L 1180 420 L 1280 460 L 1280 500 Z" fill="#0f0820" opacity="0.85"/>
  <path d="M 0 500 L 140 460 L 260 480 L 380 450 L 520 470 L 680 455 L 820 475 L 980 455 L 1140 475 L 1280 465 L 1280 500 Z" fill="#080414" opacity="0.95"/>

  <g>
    <circle cx="160" cy="300" r="14" fill="url(#lglow)" filter="url(#halo)"/>
    <ellipse cx="160" cy="300" rx="5" ry="7" fill="#ffb84a"/>

    <circle cx="380" cy="200" r="16" fill="url(#lglow)" filter="url(#halo)"/>
    <ellipse cx="380" cy="200" rx="6" ry="8" fill="#ffb84a"/>

    <circle cx="640" cy="250" r="14" fill="url(#lglow)" filter="url(#halo)"/>
    <ellipse cx="640" cy="250" rx="5" ry="7" fill="#ffb84a"/>

    <circle cx="820" cy="180" r="16" fill="url(#lglow)" filter="url(#halo)"/>
    <ellipse cx="820" cy="180" rx="6" ry="8" fill="#ffb84a"/>

    <circle cx="1100" cy="320" r="18" fill="url(#lglow)" filter="url(#halo)"/>
    <ellipse cx="1100" cy="320" rx="7" ry="9" fill="#ffb84a"/>

    <circle cx="1180" cy="200" r="12" fill="url(#lglow)" filter="url(#halo)"/>
    <ellipse cx="1180" cy="200" rx="4" ry="6" fill="#ffb84a"/>

    <circle cx="240" cy="380" r="34" fill="url(#lglow)" filter="url(#halo)"/>
    <ellipse cx="240" cy="380" rx="15" ry="19" fill="#ff8a3c"/>
    <rect x="231" y="364" width="18" height="3" fill="#3a1a0a"/>
    <rect x="233" y="399" width="14" height="4" fill="#3a1a0a"/>

    <circle cx="1020" cy="360" r="36" fill="url(#lglow)" filter="url(#halo)"/>
    <ellipse cx="1020" cy="360" rx="16" ry="20" fill="#ff8a3c"/>
    <rect x="1010" y="343" width="20" height="3" fill="#3a1a0a"/>
    <rect x="1012" y="380" width="16" height="4" fill="#3a1a0a"/>

    <circle cx="180" cy="180" r="68" fill="url(#lglow)" filter="url(#halo)"/>
    <ellipse cx="180" cy="180" rx="28" ry="36" fill="#ff8a3c"/>
    <ellipse cx="180" cy="180" rx="28" ry="36" fill="none" stroke="#c43d1f" stroke-width="2"/>
    <rect x="164" y="142" width="32" height="6" fill="#3a1a0a" rx="1"/>
    <rect x="168" y="216" width="24" height="7" fill="#3a1a0a" rx="1"/>
    <ellipse cx="180" cy="182" rx="10" ry="16" fill="#fff4c2" opacity="0.85"/>
    <line x1="180" y1="142" x2="180" y2="120" stroke="#3a1a0a" stroke-width="1.5" opacity="0.6"/>
  </g>

  <g filter="url(#ripple)" opacity="0.5">
    <ellipse cx="180" cy="540" rx="22" ry="6" fill="#ff8a3c"/>
    <ellipse cx="180" cy="560" rx="18" ry="4" fill="#ffb84a"/>
    <ellipse cx="180" cy="580" rx="14" ry="3" fill="#ff8a3c"/>

    <ellipse cx="240" cy="530" rx="14" ry="4" fill="#ff8a3c"/>
    <ellipse cx="1020" cy="535" rx="15" ry="4" fill="#ff8a3c"/>
    <ellipse cx="1020" cy="552" rx="12" ry="3" fill="#ffb84a"/>

    <ellipse cx="980" cy="610" rx="42" ry="5" fill="#fff8e0" opacity="0.7"/>
    <ellipse cx="980" cy="630" rx="34" ry="4" fill="#fff8e0" opacity="0.5"/>
  </g>

  <g stroke="#fff8e0" stroke-width="1" fill="none" opacity="0.18">
    <path d="M 40 540 Q 140 535 240 540 T 440 540 T 640 540 T 840 540 T 1040 540 T 1240 540"/>
    <path d="M 20 600 Q 120 595 220 600 T 420 600 T 620 600 T 820 600 T 1020 600 T 1240 600"/>
    <path d="M 60 660 Q 160 655 260 660 T 460 660 T 660 660 T 860 660 T 1060 660 T 1240 660"/>
  </g>

  <g fill="#ffd96a" opacity="0.75">
    <circle cx="320" cy="220" r="1.4"/>
    <circle cx="500" cy="170" r="1.1"/>
    <circle cx="700" cy="200" r="1.3"/>
    <circle cx="900" cy="240" r="1.2"/>
    <circle cx="280" cy="320" r="1.1"/>
    <circle cx="1080" cy="240" r="1.3"/>
  </g>
</svg>
