<svg xmlns="http://www.w3.org/2000/svg" viewBox="0 80 460 160" role="img" aria-label="Cinder Shard projectile">
  <defs>
    <radialGradient id="s-flame" cx="0.5" cy="0.5" r="0.5">
      <stop offset="0%" stop-color="#fff3c8" stop-opacity="1"/>
      <stop offset="35%" stop-color="#ffb87a" stop-opacity="0.85"/>
      <stop offset="70%" stop-color="#c0512a" stop-opacity="0.35"/>
      <stop offset="100%" stop-color="#5a1d10" stop-opacity="0"/>
    </radialGradient>
    <filter id="s-halo" x="-50%" y="-50%" width="200%" height="200%">
      <feGaussianBlur stdDeviation="14"/>
    </filter>
  </defs>
  <g>
    <animateTransform attributeName="transform" type="translate"
      from="-380 0" to="120 0" dur="2.0s" repeatCount="indefinite"/>
    <ellipse cx="280" cy="160" rx="200" ry="12" fill="#e06b2a" opacity="0.4" filter="url(#s-halo)">
      <animate attributeName="opacity" values="0.3;0.5;0.3" dur="0.4s" repeatCount="indefinite"/>
    </ellipse>
    <circle cx="350" cy="160" r="48" fill="url(#s-flame)" filter="url(#s-halo)">
      <animate attributeName="r" values="44;52;44" dur="0.45s" repeatCount="indefinite"/>
    </circle>
    <g>
      <animateTransform attributeName="transform" type="rotate"
        from="0 352 160" to="360 352 160" dur="1.4s" repeatCount="indefinite"/>
      <path d="M 332 144 L 364 138 L 376 156 L 372 176 L 348 182 L 328 168 Z"
            fill="#7d7468" stroke="#1a1626" stroke-width="1.4"/>
      <path d="M 338 152 L 354 162 L 362 174" stroke="#f4b042" stroke-width="1.6" fill="none">
        <animate attributeName="opacity" values="0.6;1;0.6" dur="0.3s" repeatCount="indefinite"/>
      </path>
      <path d="M 352 144 L 358 158" stroke="#fff3c8" stroke-width="1.2" fill="none"/>
      <path d="M 344 170 L 360 168" stroke="#f4b042" stroke-width="1.2" fill="none"/>
    </g>
    <g fill="#7d7468" stroke="#1a1626" stroke-width="0.8">
      <path d="M 250 150 L 260 144 L 266 152 L 258 158 Z">
        <animate attributeName="opacity" values="0;0.85;0" dur="1s" begin="0s" repeatCount="indefinite"/>
      </path>
      <path d="M 210 164 L 220 158 L 226 166 L 218 172 Z">
        <animate attributeName="opacity" values="0;0.85;0" dur="1s" begin="0.25s" repeatCount="indefinite"/>
      </path>
      <path d="M 170 150 L 180 144 L 186 152 L 178 158 Z">
        <animate attributeName="opacity" values="0;0.85;0" dur="1s" begin="0.5s" repeatCount="indefinite"/>
      </path>
    </g>
  </g>
</svg>
