<svg xmlns="http://www.w3.org/2000/svg" viewBox="0 0 512 768" width="512" height="768">
  <defs>
    <linearGradient id="bg" x1="0" y1="0" x2="0" y2="1">
      <stop offset="0%" stop-color="#1a1444"/>
      <stop offset="50%" stop-color="#4a1f5e"/>
      <stop offset="100%" stop-color="#a83a4a"/>
    </linearGradient>
    <radialGradient id="vignette" cx="0.5" cy="0.55" r="0.7">
      <stop offset="0%" stop-color="#000" stop-opacity="0"/>
      <stop offset="100%" stop-color="#000" stop-opacity="0.45"/>
    </radialGradient>
    <radialGradient id="lglow" cx="0.5" cy="0.5" r="0.5">
      <stop offset="0%" stop-color="#fff4c2" stop-opacity="0.98"/>
      <stop offset="50%" stop-color="#ffd96a" stop-opacity="0.5"/>
      <stop offset="100%" stop-color="#ff7a3a" stop-opacity="0"/>
    </radialGradient>
    <linearGradient id="glass" x1="0" y1="0" x2="0" y2="1">
      <stop offset="0%" stop-color="#fff8e0" stop-opacity="0.6"/>
      <stop offset="50%" stop-color="#ffd96a" stop-opacity="0.65"/>
      <stop offset="100%" stop-color="#ff7a3a" stop-opacity="0.7"/>
    </linearGradient>
    <filter id="halo" x="-50%" y="-50%" width="200%" height="200%">
      <feGaussianBlur stdDeviation="16"/>
    </filter>
  </defs>

  <rect width="512" height="768" fill="url(#bg)"/>
  <rect width="512" height="768" fill="url(#vignette)"/>

  <g fill="#fff8e0" opacity="0.65">
    <circle cx="100" cy="80" r="1.3"/>
    <circle cx="220" cy="40" r="1.1"/>
    <circle cx="360" cy="100" r="1.2"/>
    <circle cx="460" cy="60" r="1"/>
    <circle cx="80" cy="200" r="1"/>
    <circle cx="420" cy="220" r="0.9"/>
  </g>

  <circle cx="340" cy="370" r="200" fill="url(#lglow)" filter="url(#halo)"/>

  <path d="M 150 768 L 150 580 Q 150 480 200 416 Q 220 396 240 392 L 240 340 Q 240 290 264 264 Q 290 256 312 264 Q 336 290 336 340 L 336 392 Q 360 400 380 426 Q 410 466 410 560 L 410 768 Z" fill="#0a0414"/>

  <path d="M 240 340 Q 240 290 264 264 Q 290 256 312 264 Q 336 290 336 340 L 336 358 Q 326 350 316 350 L 260 350 Q 250 350 240 358 Z" fill="#04010a"/>
  <ellipse cx="288" cy="354" rx="50" ry="34" fill="#04010a"/>
  <path d="M 288 372 Q 274 386 254 392 Q 240 392 234 384 Q 228 372 242 364" fill="#04010a"/>

  <line x1="372" y1="476" x2="372" y2="372" stroke="#3a1a0a" stroke-width="2.2"/>

  <g transform="translate(372 530)">
    <circle r="74" fill="url(#lglow)"/>
    <rect x="-12" y="-58" width="24" height="6" fill="#3a1a0a" rx="1"/>
    <line x1="0" y1="-52" x2="-16" y2="-30" stroke="#3a1a0a" stroke-width="1.6"/>
    <line x1="0" y1="-52" x2="16" y2="-30" stroke="#3a1a0a" stroke-width="1.6"/>

    <path d="M 0 -34 Q -28 -22 -28 18 Q -28 56 0 56 Q 28 56 28 18 Q 28 -22 0 -34 Z" fill="url(#glass)" opacity="0.85"/>
    <path d="M 0 -34 Q -28 -22 -28 18 Q -28 56 0 56 Q 28 56 28 18 Q 28 -22 0 -34 Z" fill="none" stroke="#fff8e0" stroke-width="1" opacity="0.75"/>
    <path d="M -22 -10 Q -28 18 -22 40" stroke="#a8e0f0" stroke-width="1.2" fill="none" opacity="0.7"/>
    <path d="M 22 -10 Q 28 18 22 40" stroke="#a8e0f0" stroke-width="0.8" fill="none" opacity="0.55"/>

    <line x1="0" y1="-30" x2="0" y2="44" stroke="#fff4c2" stroke-width="1.6" opacity="0.95"/>
    <circle cx="0" cy="14" r="6" fill="#fff4c2"/>
    <circle cx="0" cy="14" r="3" fill="#fff8e0"/>

    <path d="M -28 -10 Q -32 -14 -36 -10 M 28 -10 Q 32 -14 36 -10" stroke="#ffd96a" stroke-width="1.2" fill="none" opacity="0.85"/>
    <path d="M -28 30 Q -34 34 -32 40 M 28 30 Q 34 34 32 40" stroke="#ffd96a" stroke-width="1.2" fill="none" opacity="0.85"/>
    <ellipse cx="0" cy="56" rx="14" ry="3" fill="#3a1a0a"/>
    <line x1="0" y1="-58" x2="0" y2="-72" stroke="#3a1a0a" stroke-width="2" opacity="0.7"/>
  </g>

  <g fill="#fff4c2" opacity="0.8">
    <circle cx="320" cy="450" r="1.4"/>
    <circle cx="420" cy="430" r="1.2"/>
    <circle cx="440" cy="500" r="1.4"/>
    <circle cx="300" cy="510" r="1.1"/>
    <circle cx="400" cy="600" r="1.3"/>
  </g>
</svg>
