<svg xmlns="http://www.w3.org/2000/svg" viewBox="0 0 512 768" width="512" height="768">
  <defs>
    <linearGradient id="bg" x1="0" y1="0" x2="0" y2="1">
      <stop offset="0%" stop-color="#1a1444"/>
      <stop offset="50%" stop-color="#4a1f5e"/>
      <stop offset="100%" stop-color="#a83a4a"/>
    </linearGradient>
    <radialGradient id="vignette" cx="0.5" cy="0.55" r="0.7">
      <stop offset="0%" stop-color="#000" stop-opacity="0"/>
      <stop offset="100%" stop-color="#000" stop-opacity="0.45"/>
    </radialGradient>
    <radialGradient id="lglow" cx="0.5" cy="0.5" r="0.5">
      <stop offset="0%" stop-color="#ffd96a" stop-opacity="0.98"/>
      <stop offset="50%" stop-color="#ff7a3a" stop-opacity="0.45"/>
      <stop offset="100%" stop-color="#ff5a1a" stop-opacity="0"/>
    </radialGradient>
    <radialGradient id="trailGlow" cx="0.3" cy="0.5" r="0.7">
      <stop offset="0%" stop-color="#ffd96a" stop-opacity="0.85"/>
      <stop offset="50%" stop-color="#ff7a3a" stop-opacity="0.35"/>
      <stop offset="100%" stop-color="#ff5a1a" stop-opacity="0"/>
    </radialGradient>
    <linearGradient id="lantBody" x1="0" y1="0" x2="0" y2="1">
      <stop offset="0%" stop-color="#ffd96a"/>
      <stop offset="100%" stop-color="#c43d1f"/>
    </linearGradient>
    <filter id="halo" x="-50%" y="-50%" width="200%" height="200%">
      <feGaussianBlur stdDeviation="16"/>
    </filter>
    <filter id="streak" x="-20%" y="-20%" width="140%" height="140%">
      <feGaussianBlur stdDeviation="3"/>
    </filter>
  </defs>

  <rect width="512" height="768" fill="url(#bg)"/>
  <rect width="512" height="768" fill="url(#vignette)"/>

  <g fill="#fff8e0" opacity="0.7">
    <circle cx="80" cy="100" r="1.4"/>
    <circle cx="200" cy="60" r="1"/>
    <circle cx="370" cy="120" r="1.2"/>
    <circle cx="450" cy="80" r="1"/>
    <circle cx="60" cy="220" r="1.1"/>
  </g>

  <ellipse cx="380" cy="430" rx="280" ry="100" fill="url(#trailGlow)" filter="url(#halo)"/>

  <path d="M 130 768 L 140 580 Q 152 480 196 420 L 200 380 Q 202 320 232 296 Q 264 286 294 296 Q 322 320 326 384 L 332 420 Q 360 444 376 484 L 370 510 L 348 540 L 350 570 Q 360 600 366 700 L 378 768 Z" fill="#0a0414"/>

  <path d="M 200 380 Q 202 320 232 296 Q 264 286 294 296 Q 322 320 326 384 L 326 400 Q 318 392 308 392 L 218 392 Q 208 392 200 400 Z" fill="#04010a"/>
  <ellipse cx="262" cy="396" rx="50" ry="32" fill="#04010a"/>
  <path d="M 262 412 Q 250 426 232 432 Q 220 432 214 422 Q 210 412 222 404" fill="#04010a"/>

  <path d="M 200 412 Q 280 408 320 420 L 460 414 Q 470 414 470 422 L 458 432 Q 320 446 274 444 Q 240 444 196 438 Z" fill="#1a0a24" opacity="0.85"/>
  <path d="M 460 414 L 488 408 L 472 422 L 446 432 Z" fill="#1a0a24" opacity="0.7"/>
  <path d="M 470 422 L 500 426 L 482 432 L 456 432 Z" fill="#1a0a24" opacity="0.55"/>

  <line x1="332" y1="420" x2="468" y2="394" stroke="#3a1a0a" stroke-width="3.6" stroke-linecap="round"/>
  <line x1="332" y1="420" x2="468" y2="394" stroke="#5a2a14" stroke-width="1.6" stroke-linecap="round"/>

  <g transform="translate(468 394)">
    <ellipse cx="0" cy="0" rx="120" ry="34" fill="url(#trailGlow)" filter="url(#halo)"/>
    <circle cx="0" cy="0" r="46" fill="url(#lglow)"/>
    <rect x="-18" y="-30" width="36" height="6" fill="#3a1a0a" rx="1"/>
    <ellipse cx="0" cy="0" rx="22" ry="30" fill="url(#lantBody)"/>
    <ellipse cx="0" cy="0" rx="22" ry="30" fill="none" stroke="#c43d1f" stroke-width="1.6"/>
    <path d="M -22 -10 Q 0 -4 22 -10" stroke="#7a2a14" stroke-width="1.4" fill="none" opacity="0.55"/>
    <path d="M -22 10 Q 0 16 22 10" stroke="#7a2a14" stroke-width="1.4" fill="none" opacity="0.55"/>
    <rect x="-13" y="26" width="26" height="7" fill="#3a1a0a" rx="1"/>
    <ellipse cx="0" cy="2" rx="9" ry="14" fill="#fff4c2" opacity="0.92"/>
    <line x1="0" y1="-30" x2="0" y2="-42" stroke="#3a1a0a" stroke-width="2" opacity="0.7"/>
  </g>

  <g stroke="#ffd96a" stroke-width="1" fill="none" opacity="0.55" filter="url(#streak)">
    <line x1="200" y1="430" x2="320" y2="424"/>
    <line x1="220" y1="446" x2="340" y2="440"/>
    <line x1="180" y1="416" x2="290" y2="412"/>
  </g>

  <g fill="#ffd96a" opacity="0.85">
    <circle cx="350" cy="408" r="1.6"/>
    <circle cx="410" cy="402" r="1.4"/>
    <circle cx="300" cy="432" r="1.3"/>
    <circle cx="240" cy="448" r="1.2"/>
    <circle cx="380" cy="450" r="1.4"/>
    <circle cx="430" cy="430" r="1.3"/>
  </g>
</svg>
