<svg xmlns="http://www.w3.org/2000/svg" viewBox="0 0 512 768" width="512" height="768">
  <defs>
    <linearGradient id="bg" x1="0" y1="0" x2="0" y2="1">
      <stop offset="0%" stop-color="#1a1444"/>
      <stop offset="50%" stop-color="#4a1f5e"/>
      <stop offset="100%" stop-color="#a83a4a"/>
    </linearGradient>
    <radialGradient id="vignette" cx="0.5" cy="0.55" r="0.7">
      <stop offset="0%" stop-color="#000" stop-opacity="0"/>
      <stop offset="100%" stop-color="#000" stop-opacity="0.45"/>
    </radialGradient>
    <radialGradient id="lglow" cx="0.5" cy="0.5" r="0.5">
      <stop offset="0%" stop-color="#ffd96a" stop-opacity="0.95"/>
      <stop offset="55%" stop-color="#ff7a3a" stop-opacity="0.4"/>
      <stop offset="100%" stop-color="#ff5a1a" stop-opacity="0"/>
    </radialGradient>
    <linearGradient id="lantBody" x1="0" y1="0" x2="0" y2="1">
      <stop offset="0%" stop-color="#ffd96a"/>
      <stop offset="60%" stop-color="#ff8a3c"/>
      <stop offset="100%" stop-color="#c43d1f"/>
    </linearGradient>
    <filter id="halo" x="-50%" y="-50%" width="200%" height="200%">
      <feGaussianBlur stdDeviation="16"/>
    </filter>
  </defs>

  <rect width="512" height="768" fill="url(#bg)"/>
  <rect width="512" height="768" fill="url(#vignette)"/>

  <g fill="#fff8e0" opacity="0.7">
    <circle cx="80" cy="100" r="1.4"/>
    <circle cx="180" cy="60" r="1"/>
    <circle cx="380" cy="120" r="1.2"/>
    <circle cx="440" cy="80" r="1"/>
    <circle cx="60" cy="220" r="1.1"/>
    <circle cx="460" cy="200" r="0.9"/>
    <circle cx="240" cy="40" r="1"/>
  </g>

  <circle cx="320" cy="380" r="180" fill="url(#lglow)" filter="url(#halo)"/>

  <path d="M 110 768 L 110 560 Q 110 460 180 400 Q 200 380 220 376 L 220 340 Q 220 280 256 248 Q 296 240 332 248 Q 372 280 372 340 L 372 380 Q 396 388 416 410 Q 446 450 446 540 L 446 768 Z" fill="#0a0414"/>

  <path d="M 220 340 Q 220 280 256 248 Q 296 240 332 248 Q 372 280 372 340 L 372 360 Q 360 348 348 348 L 244 348 Q 232 348 220 360 Z" fill="#04010a"/>

  <ellipse cx="296" cy="356" rx="58" ry="40" fill="#04010a"/>
  <ellipse cx="296" cy="354" rx="46" ry="32" fill="#0a0414" opacity="0.6"/>

  <path d="M 296 372 Q 280 388 256 396 Q 240 396 232 388 Q 224 374 240 364" fill="#04010a"/>

  <path d="M 290 414 L 282 460 L 286 462 L 280 510 L 286 512 L 282 560 L 290 562 Z" fill="#1a0a24" opacity="0.7"/>

  <line x1="380" y1="500" x2="380" y2="380" stroke="#3a1a0a" stroke-width="3"/>

  <g transform="translate(380 540)">
    <circle r="62" fill="url(#lglow)"/>
    <rect x="-26" y="-44" width="52" height="8" fill="#3a1a0a" rx="1.5"/>
    <ellipse cx="0" cy="0" rx="38" ry="48" fill="url(#lantBody)"/>
    <ellipse cx="0" cy="0" rx="38" ry="48" fill="none" stroke="#c43d1f" stroke-width="2"/>
    <path d="M -38 -16 Q 0 -8 38 -16" stroke="#7a2a14" stroke-width="2" fill="none" opacity="0.55"/>
    <path d="M -38 16 Q 0 24 38 16" stroke="#7a2a14" stroke-width="2" fill="none" opacity="0.55"/>
    <rect x="-22" y="44" width="44" height="10" fill="#3a1a0a" rx="1.5"/>
    <rect x="-6" y="54" width="12" height="20" fill="#3a1a0a"/>
    <ellipse cx="0" cy="4" rx="14" ry="22" fill="#fff4c2" opacity="0.9"/>
    <line x1="0" y1="-44" x2="0" y2="-66" stroke="#3a1a0a" stroke-width="2.4" opacity="0.7"/>
  </g>

  <g fill="#ffd96a" opacity="0.75">
    <circle cx="340" cy="460" r="1.6"/>
    <circle cx="430" cy="440" r="1.3"/>
    <circle cx="450" cy="510" r="1.5"/>
    <circle cx="320" cy="540" r="1.2"/>
    <circle cx="400" cy="600" r="1.4"/>
    <circle cx="280" cy="500" r="1.2"/>
  </g>
</svg>
